<svg xmlns="http://www.w3.org/2000/svg" xmlns:xlink="http://www.w3.org/1999/xlink" width="400" zoomAndPan="magnify" viewBox="0 0 300 162.749997" height="217" preserveAspectRatio="xMidYMid meet" version="1.0"><defs><g/><clipPath id="a2546545a3"><path d="M 3.792969 65.03125 L 21.757812 65.03125 L 21.757812 97.308594 L 3.792969 97.308594 Z M 3.792969 65.03125 " clip-rule="nonzero"/></clipPath></defs><g fill="#ffffff" fill-opacity="1"><g transform="translate(-3.841424, 130.207505)"><g><path d="M 92.828125 -66.609375 L 77.78125 -66.609375 C 77.207031 -69.816406 76.132812 -72.640625 74.5625 -75.078125 C 72.988281 -77.523438 71.0625 -79.597656 68.78125 -81.296875 C 66.5 -83.003906 63.953125 -84.289062 61.140625 -85.15625 C 58.328125 -86.03125 55.347656 -86.46875 52.203125 -86.46875 C 46.515625 -86.46875 41.425781 -85.035156 36.9375 -82.171875 C 32.457031 -79.316406 28.921875 -75.125 26.328125 -69.59375 C 23.742188 -64.070312 22.453125 -57.328125 22.453125 -49.359375 C 22.453125 -41.316406 23.742188 -34.53125 26.328125 -29 C 28.921875 -23.476562 32.46875 -19.300781 36.96875 -16.46875 C 41.46875 -13.644531 46.523438 -12.234375 52.140625 -12.234375 C 55.265625 -12.234375 58.226562 -12.660156 61.03125 -13.515625 C 63.84375 -14.367188 66.390625 -15.628906 68.671875 -17.296875 C 70.953125 -18.972656 72.890625 -21.019531 74.484375 -23.4375 C 76.078125 -25.863281 77.175781 -28.65625 77.78125 -31.8125 L 92.828125 -31.765625 C 92.023438 -26.910156 90.472656 -22.453125 88.171875 -18.390625 C 85.878906 -14.328125 82.941406 -10.820312 79.359375 -7.875 C 75.773438 -4.9375 71.6875 -2.664062 67.09375 -1.0625 C 62.5 0.539062 57.484375 1.34375 52.046875 1.34375 C 43.503906 1.34375 35.890625 -0.6875 29.203125 -4.75 C 22.523438 -8.8125 17.265625 -14.632812 13.421875 -22.21875 C 9.578125 -29.800781 7.65625 -38.847656 7.65625 -49.359375 C 7.65625 -59.890625 9.582031 -68.9375 13.4375 -76.5 C 17.300781 -84.070312 22.570312 -89.890625 29.25 -93.953125 C 35.9375 -98.015625 43.535156 -100.046875 52.046875 -100.046875 C 57.285156 -100.046875 62.175781 -99.300781 66.71875 -97.8125 C 71.269531 -96.320312 75.359375 -94.132812 78.984375 -91.25 C 82.617188 -88.375 85.625 -84.875 88 -80.75 C 90.382812 -76.625 91.992188 -71.910156 92.828125 -66.609375 Z M 92.828125 -66.609375 "/></g></g></g><g fill="#3b91f8" fill-opacity="1"><g transform="translate(87.822453, 130.207505)"><g><path d="M 24.09375 -98.703125 L 24.09375 0 L 9.6875 0 L 9.6875 -98.703125 Z M 24.09375 -98.703125 "/></g></g></g><g fill="#ffffff" fill-opacity="1"><g transform="translate(113.470554, 130.207505)"><g><path d="M 31.234375 1.640625 C 26.535156 1.640625 22.289062 0.765625 18.5 -0.984375 C 14.707031 -2.734375 11.710938 -5.28125 9.515625 -8.625 C 7.316406 -11.96875 6.21875 -16.066406 6.21875 -20.921875 C 6.21875 -25.097656 7.019531 -28.535156 8.625 -31.234375 C 10.226562 -33.929688 12.394531 -36.066406 15.125 -37.640625 C 17.863281 -39.210938 20.914062 -40.398438 24.28125 -41.203125 C 27.65625 -42.003906 31.097656 -42.613281 34.609375 -43.03125 C 39.035156 -43.550781 42.628906 -43.976562 45.390625 -44.3125 C 48.160156 -44.65625 50.171875 -45.210938 51.421875 -45.984375 C 52.671875 -46.753906 53.296875 -48.003906 53.296875 -49.734375 L 53.296875 -50.078125 C 53.296875 -54.285156 52.113281 -57.546875 49.75 -59.859375 C 47.394531 -62.171875 43.890625 -63.328125 39.234375 -63.328125 C 34.378906 -63.328125 30.5625 -62.257812 27.78125 -60.125 C 25 -57.988281 23.082031 -55.617188 22.03125 -53.015625 L 8.484375 -56.09375 C 10.085938 -60.59375 12.4375 -64.234375 15.53125 -67.015625 C 18.632812 -69.796875 22.210938 -71.820312 26.265625 -73.09375 C 30.316406 -74.363281 34.570312 -75 39.03125 -75 C 41.988281 -75 45.128906 -74.648438 48.453125 -73.953125 C 51.785156 -73.265625 54.90625 -72.003906 57.8125 -70.171875 C 60.71875 -68.335938 63.101562 -65.722656 64.96875 -62.328125 C 66.832031 -58.941406 67.765625 -54.550781 67.765625 -49.15625 L 67.765625 0 L 53.6875 0 L 53.6875 -10.125 L 53.109375 -10.125 C 52.179688 -8.257812 50.785156 -6.425781 48.921875 -4.625 C 47.054688 -2.820312 44.660156 -1.328125 41.734375 -0.140625 C 38.816406 1.046875 35.316406 1.640625 31.234375 1.640625 Z M 34.359375 -9.921875 C 38.347656 -9.921875 41.765625 -10.707031 44.609375 -12.28125 C 47.453125 -13.863281 49.617188 -15.929688 51.109375 -18.484375 C 52.609375 -21.035156 53.359375 -23.773438 53.359375 -26.703125 L 53.359375 -36.25 C 52.835938 -35.726562 51.847656 -35.25 50.390625 -34.8125 C 48.929688 -34.382812 47.269531 -34.015625 45.40625 -33.703125 C 43.539062 -33.398438 41.722656 -33.128906 39.953125 -32.890625 C 38.179688 -32.648438 36.703125 -32.453125 35.515625 -32.296875 C 32.722656 -31.941406 30.175781 -31.34375 27.875 -30.5 C 25.582031 -29.664062 23.753906 -28.46875 22.390625 -26.90625 C 21.023438 -25.351562 20.34375 -23.289062 20.34375 -20.71875 C 20.34375 -17.15625 21.660156 -14.460938 24.296875 -12.640625 C 26.929688 -10.828125 30.285156 -9.921875 34.359375 -9.921875 Z M 34.359375 -9.921875 "/></g></g></g><g fill="#ffffff" fill-opacity="1"><g transform="translate(182.577575, 130.207505)"><g><path d="M 9.6875 0 L 9.6875 -74.03125 L 23.609375 -74.03125 L 23.609375 -62.265625 L 24.390625 -62.265625 C 25.734375 -66.253906 28.113281 -69.394531 31.53125 -71.6875 C 34.957031 -73.988281 38.84375 -75.140625 43.1875 -75.140625 C 44.082031 -75.140625 45.148438 -75.101562 46.390625 -75.03125 C 47.628906 -74.96875 48.597656 -74.890625 49.296875 -74.796875 L 49.296875 -61.015625 C 48.722656 -61.171875 47.695312 -61.351562 46.21875 -61.5625 C 44.738281 -61.78125 43.257812 -61.890625 41.78125 -61.890625 C 38.375 -61.890625 35.34375 -61.171875 32.6875 -59.734375 C 30.039062 -58.304688 27.945312 -56.332031 26.40625 -53.8125 C 24.863281 -51.289062 24.09375 -48.421875 24.09375 -45.203125 L 24.09375 0 Z M 9.6875 0 "/></g></g></g><g fill="#ffffff" fill-opacity="1"><g transform="translate(226.577143, 130.207505)"><g><path d="M 31.234375 1.640625 C 26.535156 1.640625 22.289062 0.765625 18.5 -0.984375 C 14.707031 -2.734375 11.710938 -5.28125 9.515625 -8.625 C 7.316406 -11.96875 6.21875 -16.066406 6.21875 -20.921875 C 6.21875 -25.097656 7.019531 -28.535156 8.625 -31.234375 C 10.226562 -33.929688 12.394531 -36.066406 15.125 -37.640625 C 17.863281 -39.210938 20.914062 -40.398438 24.28125 -41.203125 C 27.65625 -42.003906 31.097656 -42.613281 34.609375 -43.03125 C 39.035156 -43.550781 42.628906 -43.976562 45.390625 -44.3125 C 48.160156 -44.65625 50.171875 -45.210938 51.421875 -45.984375 C 52.671875 -46.753906 53.296875 -48.003906 53.296875 -49.734375 L 53.296875 -50.078125 C 53.296875 -54.285156 52.113281 -57.546875 49.75 -59.859375 C 47.394531 -62.171875 43.890625 -63.328125 39.234375 -63.328125 C 34.378906 -63.328125 30.5625 -62.257812 27.78125 -60.125 C 25 -57.988281 23.082031 -55.617188 22.03125 -53.015625 L 8.484375 -56.09375 C 10.085938 -60.59375 12.4375 -64.234375 15.53125 -67.015625 C 18.632812 -69.796875 22.210938 -71.820312 26.265625 -73.09375 C 30.316406 -74.363281 34.570312 -75 39.03125 -75 C 41.988281 -75 45.128906 -74.648438 48.453125 -73.953125 C 51.785156 -73.265625 54.90625 -72.003906 57.8125 -70.171875 C 60.71875 -68.335938 63.101562 -65.722656 64.96875 -62.328125 C 66.832031 -58.941406 67.765625 -54.550781 67.765625 -49.15625 L 67.765625 0 L 53.6875 0 L 53.6875 -10.125 L 53.109375 -10.125 C 52.179688 -8.257812 50.785156 -6.425781 48.921875 -4.625 C 47.054688 -2.820312 44.660156 -1.328125 41.734375 -0.140625 C 38.816406 1.046875 35.316406 1.640625 31.234375 1.640625 Z M 34.359375 -9.921875 C 38.347656 -9.921875 41.765625 -10.707031 44.609375 -12.28125 C 47.453125 -13.863281 49.617188 -15.929688 51.109375 -18.484375 C 52.609375 -21.035156 53.359375 -23.773438 53.359375 -26.703125 L 53.359375 -36.25 C 52.835938 -35.726562 51.847656 -35.25 50.390625 -34.8125 C 48.929688 -34.382812 47.269531 -34.015625 45.40625 -33.703125 C 43.539062 -33.398438 41.722656 -33.128906 39.953125 -32.890625 C 38.179688 -32.648438 36.703125 -32.453125 35.515625 -32.296875 C 32.722656 -31.941406 30.175781 -31.34375 27.875 -30.5 C 25.582031 -29.664062 23.753906 -28.46875 22.390625 -26.90625 C 21.023438 -25.351562 20.34375 -23.289062 20.34375 -20.71875 C 20.34375 -17.15625 21.660156 -14.460938 24.296875 -12.640625 C 26.929688 -10.828125 30.285156 -9.921875 34.359375 -9.921875 Z M 34.359375 -9.921875 "/></g></g></g><g clip-path="url(#a2546545a3)"><path fill="#000000" d="M 3.792969 65.03125 L 21.757812 65.03125 L 21.757812 97.316406 L 3.792969 97.316406 Z M 3.792969 65.03125 " fill-opacity="1" fill-rule="nonzero"/></g><path stroke-linecap="butt" transform="matrix(0, -0.74885, 0.74885, 0, 4.759909, 88.640235)" fill="none" stroke-linejoin="miter" d="M -0.000520333 6.997521 L 19.957174 6.997521 " stroke="#00006c" stroke-width="14" stroke-opacity="1" stroke-miterlimit="4"/><path stroke-linecap="butt" transform="matrix(0, -0.74885, 0.74885, 0, 78.863943, 88.640235)" fill="none" stroke-linejoin="miter" d="M -0.000520333 6.999437 L 19.957174 6.999437 " stroke="#cddaff" stroke-width="14" stroke-opacity="1" stroke-miterlimit="4"/><path stroke-linecap="butt" transform="matrix(0, -0.74885, 0.74885, 0, 41.452675, 97.304661)" fill="none" stroke-linejoin="miter" d="M -0.0000358974 7.000922 L 43.102533 7.000922 " stroke="#476ef6" stroke-width="14" stroke-opacity="1" stroke-miterlimit="4"/><path stroke-linecap="butt" transform="matrix(0, -0.74885, 0.74885, 0, 23.106701, 92.741358)" fill="none" stroke-linejoin="miter" d="M -0.001108 6.998676 L 30.910888 6.998676 " stroke="#0046c5" stroke-width="14" stroke-opacity="1" stroke-miterlimit="4"/><path stroke-linecap="butt" transform="matrix(0, -0.74885, 0.74885, 0, 60.158716, 92.741358)" fill="none" stroke-linejoin="miter" d="M -0.001108 7.002243 L 30.910888 7.002243 " stroke="#3c91f9" stroke-width="14" stroke-opacity="1" stroke-miterlimit="4"/></svg>